<svg xmlns="http://www.w3.org/2000/svg" width="33.025" height="33.025" viewBox="0 0 33.025 33.025">
  <path id="Path_1" data-name="Path 1" d="M8.625,26.228h5.931a1.357,1.357,0,0,1,.237.027,1.1,1.1,0,0,1,.744,1.442,1.081,1.081,0,0,1-.862.649.883.883,0,0,1-.119.006H6a.87.87,0,0,1-.118-.014,1.086,1.086,0,0,1-.878-.928A1.1,1.1,0,0,1,5,27.29V18.8a1.1,1.1,0,0,1,1.468-.981,1.086,1.086,0,0,1,.649.862,1.115,1.115,0,0,1,.006.119v5.931L26.547,5.3a2.06,2.06,0,0,1,.186-.148A1.091,1.091,0,0,1,28.3,5.7a1.073,1.073,0,0,1-.1.915,2.085,2.085,0,0,1-.149.187L8.625,26.228Z" transform="translate(-7.075 16.513) rotate(-45)" fill="#d6d6d6"/>
</svg>
