<svg xmlns="http://www.w3.org/2000/svg" width="41.999" height="38.498" viewBox="0 0 41.999 38.498">
  <path id="Path_18" data-name="Path 18" d="M48.933,13.761l-37.3,15.524s-1.763.641-1.627,1.823,1.579,1.726,1.579,1.726l9.385,3.35s2.833,9.855,3.39,11.73,1,1.914,1,1.914a1.011,1.011,0,0,0,.991-.142l6.064-5.864,9.45,7.687a2.427,2.427,0,0,0,3.486-1.281L52,14.7C52,12.333,48.933,13.761,48.933,13.761Zm-6.6,33.61-10.11-8.221-3.137,3.033.69-6.453L43.248,22.959,24.878,33.865,16.73,30.956l31.088-12.94Z" transform="translate(-10 -13.334)" fill="#e53d1e"/>
</svg>
