<svg xmlns="http://www.w3.org/2000/svg" width="62.431" height="39.022" viewBox="0 0 62.431 39.022">
  <path id="Behance" d="M28.646,7.058a9.6,9.6,0,0,1,1.768,5.81,8.4,8.4,0,0,1-1.783,5.608,9.364,9.364,0,0,1-2.946,2.162A8.672,8.672,0,0,1,30.145,24a9.985,9.985,0,0,1,1.5,5.576,11,11,0,0,1-1.721,6.068,10.553,10.553,0,0,1-2.732,2.993,10.719,10.719,0,0,1-4.359,1.912,27.184,27.184,0,0,1-5.451.511H0V3H18.645q7.059.105,10,4.058ZM7.691,9.61v8.4h9.381a7.87,7.87,0,0,0,4.082-.944,3.583,3.583,0,0,0,1.569-3.34,3.414,3.414,0,0,0-2.072-3.52,14.8,14.8,0,0,0-4.562-.593h-8.4Zm0,14.7v10.15h9.369a9.2,9.2,0,0,0,3.91-.671c1.694-.835,2.536-2.412,2.536-4.753a4.081,4.081,0,0,0-2.455-4.086,9.912,9.912,0,0,0-3.863-.64h-9.5Zm47.28-10.817A11.488,11.488,0,0,1,59.9,17.653a13.577,13.577,0,0,1,2.279,5.818,35.813,35.813,0,0,1,.25,5.588H41.637c.125,2.821,1.108,4.8,2.989,5.935a7.647,7.647,0,0,0,4.117,1.061,6.376,6.376,0,0,0,4.136-1.288,6.142,6.142,0,0,0,1.537-1.936h7.617a9.233,9.233,0,0,1-2.763,5.089q-3.834,4.1-10.735,4.1a15.659,15.659,0,0,1-10.048-3.461Q34.121,35.1,34.129,27.3q0-7.317,3.93-11.223a13.891,13.891,0,0,1,10.2-3.9,16.3,16.3,0,0,1,6.712,1.319ZM43.814,19.846a7.628,7.628,0,0,0-1.99,4.355H54.682A6.155,6.155,0,0,0,52.7,19.748a6.624,6.624,0,0,0-4.429-1.514A6,6,0,0,0,43.814,19.846ZM39.9,9.513H56.43V4.776H39.9Z" transform="translate(0 -3)" fill="#e53d1e"/>
</svg>
