<svg xmlns="http://www.w3.org/2000/svg" width="47.674" height="40.34" viewBox="0 0 47.674 40.34">
  <path id="Path_17" data-name="Path 17" d="M82.336,283.5a8.215,8.215,0,0,1-.358,2.349,5.641,5.641,0,0,1-1.232,2.177,2.7,2.7,0,0,1-4.154,0,5.641,5.641,0,0,1-1.232-2.177,7.885,7.885,0,0,1,0-4.7,5.64,5.64,0,0,1,1.232-2.177,2.7,2.7,0,0,1,4.154,0,5.641,5.641,0,0,1,1.232,2.177A8.214,8.214,0,0,1,82.336,283.5Zm18.336,0a8.215,8.215,0,0,1-.358,2.349,5.641,5.641,0,0,1-1.232,2.177,2.7,2.7,0,0,1-4.154,0,5.64,5.64,0,0,1-1.232-2.177,7.885,7.885,0,0,1,0-4.7,5.64,5.64,0,0,1,1.232-2.177,2.7,2.7,0,0,1,4.154,0,5.64,5.64,0,0,1,1.232,2.177A8.215,8.215,0,0,1,100.672,283.5Zm4.584,0a8.909,8.909,0,0,0-1.977-5.845,6.568,6.568,0,0,0-5.358-2.407q-1.175,0-5.587.6a32.258,32.258,0,0,1-9,0,55.136,55.136,0,0,0-5.587-.6,6.568,6.568,0,0,0-5.358,2.407,8.909,8.909,0,0,0-1.977,5.845,9.911,9.911,0,0,0,.917,4.4,8.114,8.114,0,0,0,2.321,2.951,11.06,11.06,0,0,0,3.5,1.719,21.085,21.085,0,0,0,4.011.845,41.345,41.345,0,0,0,4.269.2h4.813a41.344,41.344,0,0,0,4.269-.2,21.085,21.085,0,0,0,4.011-.845,11.061,11.061,0,0,0,3.5-1.719,8.114,8.114,0,0,0,2.321-2.951A9.91,9.91,0,0,0,105.256,283.5Zm6.418-5.042a21.664,21.664,0,0,1-1.748,9.483,11.545,11.545,0,0,1-3.023,3.81,15.508,15.508,0,0,1-4.04,2.464,24.476,24.476,0,0,1-4.871,1.361,41.978,41.978,0,0,1-4.914.63q-2.149.129-4.785.129-2.235,0-4.068-.086T80,295.9a25.474,25.474,0,0,1-4.369-.859,30.179,30.179,0,0,1-3.925-1.476,12.672,12.672,0,0,1-3.467-2.321,11.905,11.905,0,0,1-2.464-3.295A21.248,21.248,0,0,1,64,278.462a16.844,16.844,0,0,1,3.9-11.346,15.473,15.473,0,0,1-.774-4.871A13.776,13.776,0,0,1,68.584,256a12.4,12.4,0,0,1,5.444,1.132,30.746,30.746,0,0,1,5.415,3.538,38.108,38.108,0,0,1,8.853-1,33.958,33.958,0,0,1,8.022.917,29.912,29.912,0,0,1,5.358-3.467A12.468,12.468,0,0,1,107.09,256a13.776,13.776,0,0,1,1.461,6.246,15.121,15.121,0,0,1-.774,4.813A17,17,0,0,1,111.674,278.462Z" transform="translate(-64 -256)" fill="#e53d1e"/>
</svg>
