<svg xmlns="http://www.w3.org/2000/svg" width="52.03" height="39.022" viewBox="0 0 52.03 39.022">
  <path id="Path_19" data-name="Path 19" d="M48.827,4H7.2A5.04,5.04,0,0,0,2.026,8.878L2,38.145a5.063,5.063,0,0,0,5.2,4.878H48.827a5.063,5.063,0,0,0,5.2-4.878V8.878A5.063,5.063,0,0,0,48.827,4ZM47.786,14.365,29.394,25.145a2.781,2.781,0,0,1-2.758,0L8.244,14.365A2.06,2.06,0,0,1,7.2,12.609a2.215,2.215,0,0,1,3.382-1.756l17.43,10.219,17.43-10.219a2.215,2.215,0,0,1,3.382,1.756A2.06,2.06,0,0,1,47.786,14.365Z" transform="translate(-2 -4)" fill="#e53d1e"/>
</svg>
