<svg xmlns="http://www.w3.org/2000/svg" width="81.22" height="81.22" viewBox="0 0 81.22 81.22">
  <path id="Path_10" data-name="Path 10" d="M13.915,57.2H28.5a3.338,3.338,0,0,1,.582.065,2.715,2.715,0,0,1,1.83,3.546,2.658,2.658,0,0,1-2.12,1.6,2.173,2.173,0,0,1-.292.016H7.611l-.146,0a2.14,2.14,0,0,1-.29-.034A2.67,2.67,0,0,1,5.016,60.1,2.707,2.707,0,0,1,5,59.81V38.921a2.706,2.706,0,0,1,3.611-2.413,2.67,2.67,0,0,1,1.6,2.12,2.743,2.743,0,0,1,.016.292V53.507L57.992,5.738a5.067,5.067,0,0,1,.457-.363A2.684,2.684,0,0,1,62.3,6.722a2.64,2.64,0,0,1-.253,2.251,5.128,5.128,0,0,1-.366.46L13.915,57.2Z" transform="translate(40.617 88.295) rotate(-135)" fill="#d6d6d6"/>
</svg>
